#!OML:ASF E:/inclinewalkrobotboard/Project1/Captureday1/Session1/subject1.ASF
:FULLY-SPECIFIED
:DEGREES
113
root 0 0 0 -0.512156173273243 -3.01599817409636 -0.1981654559824736
lowerback 11.215083815082243 0.6348585466159433 0.4003523785574551
upperback -1.9368472736821043 0.9280039452874256 0.4991102432819227
thorax -8.368700707664425 0.43209042746585175 0.11130962888906926
lowerneck -11.425206096053637 -0.6353936690305652 1.3423030259748454
upperneck 18.860431829002454 -0.25901999077330506 -3.8915363138330514
head 7.825626559636442 -0.31820558982018166 -1.5669823050320866
rclavicle -5.489530319588527E-16 -6.205890146659086E-16
rhumerus -0.514513379777167 0.9146769287501684 -60.20710356409021
rradius 53.347008231113335
rwrist 17.45727513836401
rhand -27.244822976893996 -23.44664548939248
rfingers 7.125019999999925
rthumb -0.8379579122506415 -53.58244848811162
lclavicle -4.890627857610261E-16 -6.935252898446596E-16
lhumerus -1.2905865325616084 -6.926005849540073 60.484587091916715
lradius 52.64059338017772
lwrist -11.134893552929121
lhand -37.27137862292158 -31.228030891650533
lfingers 7.12501999999992
lthumb -10.37419752957137 -1.6766657985900544
rfemur -21.373047204730454 -0.3351884175988582 19.55267364746669
rtibia 50.60126404782944
rfoot -22.751055134294013 -13.8447840668679
rtoes -12.207834566785206
lfemur -23.12546897666841 1.546620287674745 -18.14233788810146
ltibia 50.121476617027966
lfoot -25.95194579926467 -3.653086265749572
ltoes -16.71700221581597
114
root 0 0 0 -0.5099446873223104 -3.016657399427597 -0.1957904819906593
lowerback 11.215962556998749 0.6351916675070755 0.3997976406408417
upperback -1.9395236156796596 0.9282724549675715 0.49787775079423663
thorax -8.372181809103138 0.4321447680362733 0.11010865631071498
lowerneck -11.418865270909695 -0.6329390919985428 1.3459484309739662
upperneck 18.860081157015692 -0.2551358866947955 -3.896507111479231
head 7.824479641335179 -0.3165344389663858 -1.5688464322126374
rclavicle -5.483679428676033E-16 -6.198294149312653E-16
rhumerus -0.5208567551167196 0.9121518893892517 -60.20991044414201
rradius 53.34302521250302
rwrist 17.45476703714483
rhand -27.243196932162128 -23.43998145155328
rfingers 7.125019999999925
rthumb -0.8364809597981822 -53.576668682839866
lclavicle -4.899680568645067E-16 -6.929518933989066E-16
lhumerus -1.2919591647046627 -6.925691301272392 60.48569224268469
lradius 52.63995396230491
lwrist -11.133929372982408
lhand -37.270963100275644 -31.22486735376127
lfingers 7.12501999999992
lthumb -10.373500852569641 -1.6714136200349756
rfemur -21.38083470430315 -0.3398928028350472 19.546570197921305
rtibia 50.61108396367937
rfoot -22.76488868561851 -13.851275308330854
rtoes -12.222352045744856
lfemur -23.13169517849893 1.548237255558441 -18.14165823959688
ltibia 50.129114470179815
lfoot -25.96152941978019 -3.653430503794714
ltoes -16.723041511610212
115
root 0 0 0 -0.509333862259058 -3.0168593466726934 -0.1951610083434917
lowerback 11.216199494391395 0.635297545165073 0.3996727022563904
upperback -1.9403191571789276 0.9283497853443893 0.4975065509833665
thorax -8.373177822682228 0.43217468250128593 0.10977317716969964
lowerneck -11.417169284308013 -0.6322369684559178 1.3469960970469115
upperneck 18.85995386689353 -0.2540545145795219 -3.8978871830819033
head 7.824150093622671 -0.31606288525556947 -1.569364997751296
rclavicle -5.483098093667885E-16 -6.197874195941488E-16
rhumerus -0.5250984260308602 0.9093882659194072 -60.212495330745305
rradius 53.33917609442388
rwrist 17.45279237756364
rhand -27.241765052189535 -23.433111916367857
rfingers 7.125019999999925
rthumb -0.8351291870879551 -53.569810003933256
lclavicle -4.901358939076951E-16 -6.929063204674323E-16
lhumerus -1.2992966288615264 -6.923931987246119 60.490849708948225
lradius 52.63429746691455
lwrist -11.130137675768772
lhand -37.26849434002714 -31.212145927765164
lfingers 7.12501999999992
lthumb -10.371151593834657 -1.6585288562671252
rfemur -21.382963555810566 -0.3412202566892999 19.544841670020666
rtibia 50.61397464479046
rfoot -22.768808021489157 -13.853154278338444
rtoes -12.226479174265812
lfemur -23.131034981010085 1.548052833211999 -18.14173894817528
ltibia 50.12810083491831
lfoot -25.960546918675078 -3.6533216417918557
ltoes -16.72229783209267
116
root 0 0 0 -0.509119405134965 -3.01692289471718 -0.19492326069378507
lowerback 11.216281815114831 0.6353308282598343 0.39961123250494845
upperback -1.9406019034032076 0.9283692807230804 0.4973750135637928
thorax -8.37352539096329 0.4321840264870151 0.1096636964144257
lowerneck -11.416570350362615 -0.6319858254253483 1.3473647807963387
upperneck 18.85990398980073 -0.25367420842189103 -3.8983681059178363
head 7.824032899203893 -0.31589663246826594 -1.5695484798855004
rclavicle -5.483419004811838E-16 -6.197255142124149E-16
rhumerus -0.5297670679175557 0.9063176484567954 -60.215297511102776
rradius 53.3348890040026
rwrist 17.450632081190946
rhand -27.2402023249536 -23.425634724451015
rfingers 7.125019999999925
rthumb -0.8336627080644323 -53.562413063897125
lclavicle -4.902050391215918E-16 -6.928641146115718E-16
lhumerus -1.3049198296047244 -6.922577911918168 60.494807279157605
lradius 52.629940623568785
lwrist -11.127205756781088
lhand -37.266612154764715 -31.202283579727002
lfingers 7.12501999999992
lthumb -10.369350010572818 -1.6486018147816637
rfemur -21.385092929430105 -0.34253785324937036 19.54308778080586
rtibia 50.61686353444728
rfoot -22.7726880475694 -13.855037661663875
rtoes -12.230581010477124
lfemur -23.127872103171487 1.5472757669983592 -18.142062475549345
ltibia 50.12416175847922
lfoot -25.95606741994431 -3.65312944696111
ltoes -16.719358685144876
117
root 0 0 0 -0.5121050138817034 -3.01596956160981 -0.19786161627487242
lowerback 11.21516978348635 0.6348437873580121 0.40022138558218917
upperback -1.9368170842838606 0.9279452784264358 0.4990866577151746
thorax -8.36871414604865 0.4320429033948666 0.11118812580788906
lowerneck -11.424626048066882 -0.6353720371697597 1.3423899579224285
upperneck 18.860450760909114 -0.25873227294046375 -3.8918040938229383
head 7.825522615835979 -0.3181084536415192 -1.5670641435806494
rclavicle -5.486197470892542E-16 -6.20369816649142E-16
rhumerus -0.5211505025539775 0.9122777585983481 -60.209193137087375
rradius 53.343382942086684
rwrist 17.455251173235194
rhand -27.24351725314559 -23.441260482654222
rfingers 7.125019999999925
rthumb -0.8370477964490703 -53.57878720463269
lclavicle -4.900747918713236E-16 -6.937017834343154E-16
lhumerus -1.2851140216002523 -6.927476869308256 60.48085096854523
lradius 52.647509674815566
lwrist -11.137882373707686
lhand -37.27393238353644 -31.236824523449208
lfingers 7.12501999999992
lthumb -10.375983786869117 -1.6854532075382558
rfemur -21.37976757765898 -0.33913673094551466 19.547527890635646
rtibia 50.60927266759391
rfoot -22.762691214825125 -13.849835987599878
rtoes -12.219612848837198
lfemur -23.119779130163764 1.545356158367134 -18.143118806717734
ltibia 50.11473178664989
lfoot -25.94449702339108 -3.652897175698665
ltoes -16.7125281041287
118
root 0 0 0 -0.5101539659898726 -3.0165733899988356 -0.1959691704844846
lowerback 11.21588007981703 0.6351474199667699 0.3998228770167362
upperback -1.9392563489968822 0.9282303778495641 0.49799835534273074
thorax -8.371842076323086 0.4321339652774497 0.11023008968571446
lowerneck -11.419448319020796 -0.6331629069430418 1.3456203537734668
upperneck 18.860125492845512 -0.25548542159093635 -3.8960401328498504
head 7.824582108095824 -0.31669566545288597 -1.568680322181272
rclavicle -5.483114376116398E-16 -6.199345251226992E-16
rhumerus -0.5191959823159316 0.9132893584896955 -60.20889940338834
rradius 53.344616575597314
rwrist 17.45559152184232
rhand -27.24378312235377 -23.44260186199918
rfingers 7.125019999999925
rthumb -0.8370305908180695 -53.5792071625424
lclavicle -4.899381804901729E-16 -6.930074902661567E-16
lhumerus -1.2872406554981914 -6.926846202635496 60.48236239693431
lradius 52.64365305788796
lwrist -11.136422815342613
lhand -37.27254317445556 -31.23327110372709
lfingers 7.12501999999992
lthumb -10.374996137510767 -1.679696507245918
rfemur -21.380768415898114 -0.33979327819807725 19.54666710349025
rtibia 50.61073878117746
rfoot -22.76462977395095 -13.851149255649306
rtoes -12.222155514752341
lfemur -23.129946526414393 1.5478099212710599 -18.141828626745237
ltibia 50.12714432476155
lfoot -25.959106419898976 -3.653376692144667
ltoes -16.721424850428896
119
root 0 0 0 -0.5094865308892692 -3.016810172280347 -0.19532309065582865
lowerback 11.216140604078133 0.635270880907516 0.399708515926284
upperback -1.940119609624443 0.9283315162462527 0.49760016430205817
thorax -8.372938162601901 0.4321671839446351 0.1098571263780147
lowerneck -11.41759812085063 -0.6324076327203672 1.3467459165548032
upperneck 18.859987129548337 -0.2543228364337111 -3.8975436089377227
head 7.824230637385584 -0.31618312687553574 -1.5692379615999852
rclavicle -5.483645050106119E-16 -6.198407075094716E-16
rhumerus -0.5205495909788009 0.9123766630340562 -60.20975631606101
rradius 53.34332760806578
rwrist 17.454902988228003
rhand -27.243293141215798 -23.44038983409318
rfingers 7.125019999999925
rthumb -0.8365561250124305 -53.57707463871799
lclavicle -4.900344000963248E-16 -6.929303573726248E-16
lhumerus -1.2939644424564438 -6.925200471475474 60.48708539572487
lradius 52.63838465893819
lwrist -11.132923999611865
lhand -37.27027162174347 -31.221426682975917
lfingers 7.12501999999992
lthumb -10.372847514735515 -1.667909699805616
rfemur -21.382432683457004 -0.34090842929114507 19.545263415334027
rtibia 50.61330500187344
rfoot -22.767883698304253 -13.852697985713142
rtoes -12.225492379387656
lfemur -23.13231483804379 1.5483652641169041 -18.141606655293252
ltibia 50.129669668955316
lfoot -25.9623270591732 -3.65341278831753
ltoes -16.72348636855347
120
root 0 0 0 -0.5092325149170186 -3.016881691115929 -0.1950405033186512
lowerback 11.216238227230141 0.6353084706415241 0.39963691807197316
upperback -1.9404517906712249 0.9283535109565623 0.49744504763989295
thorax -8.373342948788022 0.432177941075857 0.10972658870272828
lowerneck -11.416885799211654 -0.6321132817664639 1.3471711506245885
upperneck 18.859928794240016 -0.2538727477295304 -3.898116771766717
head 7.824093533369702 -0.31598427372568305 -1.5694526248641407
rclavicle -5.4833139191249685E-16 -6.197569541379479E-16
rhumerus -0.5275375523048957 0.9077807238868072 -60.213952859770146
rradius 53.33694603079047
rwrist 17.451674635888224
rhand -27.24095288629037 -23.429212265225203
rfingers 7.125019999999925
rthumb -0.8343682299181001 -53.56596912080278
lclavicle -4.901571356979212E-16 -6.928898802550838E-16
lhumerus -1.3013305807398456 -6.923443625385742 60.49227925703092
lradius 52.632723925777235
lwrist -11.129076920632468
lhand -37.2678131950619 -31.208585285097598
lfingers 7.12501999999992
lthumb -10.370499185739682 -1.6549464516738546
rfemur -21.384446866176297 -0.3421283396883048 19.54362716756226
rtibia 50.615954950143255
rfoot -22.771486905186705 -13.854456768005399
rtoes -12.229315008355432
lfemur -23.129334118185945 1.5476372678085988 -18.14191920308061
ltibia 50.125993956769804
lfoot -25.95815369193957 -3.653219530972413
ltoes -16.720735367386094
